# WaveFront *.obj file (generated by CINEMA 4D)

mtllib ./base_boite.mtl

v -150 80 285.04290771484375
v 150 80 285.04290771484375
v -150 75.5 285.04290771484375
v 150 75.5 285.04290771484375
v -150 75.72024536132812 283.65234375
v 150 75.72024536132812 283.65234375
v -150 76.35942077636719 282.39788818359375
v 150 76.35942077636719 282.39788818359375
v -150 77.35496520996094 281.40234375
v 150 77.35496520996094 281.40234375
v -150 78.60942077636719 280.76315307617188
v 150 78.60942077636719 280.76315307617188
v -150 80 280.54290771484375
v 150 80 280.54290771484375
v -150 81.39057922363281 280.76315307617188
v 150 81.39057922363281 280.76315307617188
v -150 82.64503479003906 281.40234375
v 150 82.64503479003906 281.40234375
v -150 83.64057922363281 282.39788818359375
v 150 83.64057922363281 282.39788818359375
v -150 84.27975463867188 283.65234375
v 150 84.27975463867188 283.65234375
v -150 84.5 285.04290771484375
v 150 84.5 285.04290771484375
v -150 84.27975463867188 286.43350219726562
v 150 84.27975463867188 286.43350219726562
v -150 83.64057922363281 287.68795776367188
v 150 83.64057922363281 287.68795776367188
v -150 82.64503479003906 288.68350219726562
v 150 82.64503479003906 288.68350219726562
v -150 81.39057922363281 289.32266235351562
v 150 81.39057922363281 289.32266235351562
v -150 80 289.54290771484375
v 150 80 289.54290771484375
v -150 78.60942077636719 289.32266235351562
v 150 78.60942077636719 289.32266235351562
v -150 77.35496520996094 288.68350219726562
v 150 77.35496520996094 288.68350219726562
v -150 76.35942077636719 287.68795776367188
v 150 76.35942077636719 287.68795776367188
v -150 75.72024536132812 286.43350219726562
v 150 75.72024536132812 286.43350219726562
# 42 vertices

vn -1 0 0
vn 0 0 0
vn 0 -1 -0.00000169727684
vn 0 -0.95105648040771 -0.30901706218719
vn 1 0 0
vn 0 -0.80901730060577 -0.58778482675552
vn 0 -0.58778876066208 -0.80901443958282
vn 0 -0.30902084708214 -0.95105528831482
vn 0 0 -1
vn 0 0.30902084708214 -0.95105528831482
vn 0 0.58778876066208 -0.80901443958282
vn 0 0.80901730060577 -0.58778482675552
vn 0 0.95105648040771 -0.30901706218719
vn 0 1 -0.00000169727684
vn 0 0.95105701684952 0.30901545286179
vn 0 0.80901730060577 0.58778482675552
vn 0 0.58778089284897 0.80902016162872
vn 0 0.30901166796684 0.95105826854706
vn 0 0 1
vn 0 -0.30901166796684 0.95105826854706
vn 0 -0.58778089284897 0.80902016162872
vn 0 -0.80901730060577 0.58778482675552
vn 0 -0.95105701684952 0.30901545286179
# 23 normals

vt 0.5 0.5 0
vt 0 0.5 0
vt 0.02447174116969 0.6545085310936 0
vt 0 0 0
vt 0 1 0
vt 0.05000000074506 1 0
vt 0.05000000074506 0 0
vt 1 0.5 0
vt 0.97552824020386 0.6545085310936 0
vt 0.09549150615931 0.79389262199402 0
vt 0.10000000149012 1 0
vt 0.10000000149012 0 0
vt 0.90450847148895 0.79389262199402 0
vt 0.20610737800598 0.90450847148895 0
vt 0.15000000596046 1 0
vt 0.15000000596046 0 0
vt 0.79389262199402 0.90450847148895 0
vt 0.34549149870872 0.97552824020386 0
vt 0.20000000298023 1 0
vt 0.20000000298023 0 0
vt 0.65450847148895 0.97552824020386 0
vt 0.5 1 0
vt 0.25 1 0
vt 0.25 0 0
vt 0.30000001192093 1 0
vt 0.30000001192093 0 0
vt 0.34999999403954 1 0
vt 0.34999999403954 0 0
vt 0.40000000596046 1 0
vt 0.40000000596046 0 0
vt 0.44999998807907 1 0
vt 0.44999998807907 0 0
vt 0.5 0 0
vt 0.97552824020386 0.34549152851105 0
vt 0.55000001192093 1 0
vt 0.55000001192093 0 0
vt 0.02447174116969 0.34549152851105 0
vt 0.90450847148895 0.20610737800598 0
vt 0.60000002384186 1 0
vt 0.60000002384186 0 0
vt 0.09549150615931 0.20610737800598 0
vt 0.79389262199402 0.09549152851105 0
vt 0.64999997615814 1 0
vt 0.64999997615814 0 0
vt 0.20610737800598 0.09549152851105 0
vt 0.65450847148895 0.02447175979614 0
vt 0.69999998807907 1 0
vt 0.69999998807907 0 0
vt 0.34549149870872 0.02447175979614 0
vt 0.75 1 0
vt 0.75 0 0
vt 0.80000001192093 1 0
vt 0.80000001192093 0 0
vt 0.85000002384186 1 0
vt 0.85000002384186 0 0
vt 0.89999997615814 1 0
vt 0.89999997615814 0 0
vt 0.94999998807907 1 0
vt 0.94999998807907 0 0
vt 1 1 0
vt 1 0 0
# 61 texture coordinates

o Cylindre
usemtl Noir
f 5/3/1 3/2/1 1/1/1
f 5/7/4 6/6/4 4/5/3 3/4/3
f 6/9/5 2/1/5 4/8/5
f 7/10/1 5/3/1 1/1/1
f 7/12/6 8/11/6 6/6/4 5/7/4
f 8/13/5 2/1/5 6/9/5
f 9/14/1 7/10/1 1/1/1
f 9/16/7 10/15/7 8/11/6 7/12/6
f 10/17/5 2/1/5 8/13/5
f 11/18/1 9/14/1 1/1/1
f 11/20/8 12/19/8 10/15/7 9/16/7
f 12/21/5 2/1/5 10/17/5
f 13/22/1 11/18/1 1/1/1
f 13/24/9 14/23/9 12/19/8 11/20/8
f 14/22/5 2/1/5 12/21/5
f 15/21/1 13/22/1 1/1/1
f 15/26/10 16/25/10 14/23/9 13/24/9
f 16/18/5 2/1/5 14/22/5
f 17/17/1 15/21/1 1/1/1
f 17/28/11 18/27/11 16/25/10 15/26/10
f 18/14/5 2/1/5 16/18/5
f 19/13/1 17/17/1 1/1/1
f 19/30/12 20/29/12 18/27/11 17/28/11
f 20/10/5 2/1/5 18/14/5
f 21/9/1 19/13/1 1/1/1
f 21/32/13 22/31/13 20/29/12 19/30/12
f 22/3/5 2/1/5 20/10/5
f 23/8/1 21/9/1 1/1/1
f 23/33/14 24/22/14 22/31/13 21/32/13
f 24/2/5 2/1/5 22/3/5
f 25/34/1 23/8/1 1/1/1
f 25/36/15 26/35/15 24/22/14 23/33/14
f 26/37/5 2/1/5 24/2/5
f 27/38/1 25/34/1 1/1/1
f 27/40/16 28/39/16 26/35/15 25/36/15
f 28/41/5 2/1/5 26/37/5
f 29/42/1 27/38/1 1/1/1
f 29/44/17 30/43/17 28/39/16 27/40/16
f 30/45/5 2/1/5 28/41/5
f 31/46/1 29/42/1 1/1/1
f 31/48/18 32/47/18 30/43/17 29/44/17
f 32/49/5 2/1/5 30/45/5
f 33/33/1 31/46/1 1/1/1
f 33/51/19 34/50/19 32/47/18 31/48/18
f 34/33/5 2/1/5 32/49/5
f 35/49/1 33/33/1 1/1/1
f 35/53/20 36/52/20 34/50/19 33/51/19
f 36/46/5 2/1/5 34/33/5
f 37/45/1 35/49/1 1/1/1
f 37/55/21 38/54/21 36/52/20 35/53/20
f 38/42/5 2/1/5 36/46/5
f 39/41/1 37/45/1 1/1/1
f 39/57/22 40/56/22 38/54/21 37/55/21
f 40/38/5 2/1/5 38/42/5
f 41/37/1 39/41/1 1/1/1
f 41/59/23 42/58/23 40/56/22 39/57/22
f 42/34/5 2/1/5 40/38/5
f 3/2/1 41/37/1 1/1/1
f 3/61/3 4/60/3 42/58/23 41/59/23
f 4/8/5 2/1/5 42/34/5

v -275 -90 275
v -275 90 275
v 275 -90 275
v 275 90 275
v 275 -90 -275
v 275 90 -275
v -275 -90 -275
v -275 90 -275
v -250 90 250
v 250 90 250
v 250 90 -250
v -250 90 -250
v -250 -70 250
v 250 -70 250
v 250 -70 -250
v -250 -70 -250
v -100 85.98455047607422 285.01290893554688
v -100 89.98455047607422 285.01290893554688
v 100 85.98455047607422 285.01290893554688
v 100 89.98455047607422 285.01290893554688
v 100 85.98455047607422 270.01290893554688
v 100 89.98455047607422 270.01290893554688
v -100 85.98455047607422 270.01290893554688
v -100 89.98455047607422 270.01290893554688
v -100 75 285.03396606445312
v -100 70 285.03396606445312
v 100 70 285.03396606445312
v 100 75 285.03396606445312
v -100 75.24472045898438 283.48886108398438
v -100 70.48943328857422 281.94378662109375
v 100 70.48943328857422 281.94378662109375
v 100 75.24472045898438 283.48886108398438
v -100 75.95491790771484 282.09503173828125
v -100 71.90982818603516 279.15609741210938
v 100 71.90982818603516 279.15609741210938
v 100 75.95491790771484 282.09503173828125
v -100 77.06107330322266 280.98886108398438
v -100 74.12214660644531 276.94378662109375
v 100 74.12214660644531 276.94378662109375
v 100 77.06107330322266 280.98886108398438
v -100 78.45491790771484 280.2786865234375
v -100 76.90982818603516 275.52340698242188
v 100 76.90982818603516 275.52340698242188
v 100 78.45491790771484 280.2786865234375
v -100 80 280.03396606445312
v -100 80 275.03396606445312
v 100 80 275.03396606445312
v 100 80 280.03396606445312
v -100 81.54508209228516 280.2786865234375
v -100 83.09017181396484 275.52340698242188
v 100 83.09017181396484 275.52340698242188
v 100 81.54508209228516 280.2786865234375
v -100 82.93892669677734 280.98886108398438
v -100 85.87785339355469 276.94378662109375
v 100 85.87785339355469 276.94378662109375
v 100 82.93892669677734 280.98886108398438
v -100 84.04508209228516 282.09503173828125
v -100 88.09017181396484 279.15609741210938
v 100 88.09017181396484 279.15609741210938
v 100 84.04508209228516 282.09503173828125
v -100 84.75527954101562 283.48886108398438
v -100 89.51056671142578 281.94378662109375
v 100 89.51056671142578 281.94378662109375
v 100 84.75527954101562 283.48886108398438
v -100 85 285.03396606445312
v -100 90 285.03396606445312
v 100 90 285.03396606445312
v 100 85 285.03396606445312
v -100 84.75527954101562 286.57904052734375
v -100 89.51056671142578 288.12411499023438
v 100 89.51056671142578 288.12411499023438
v 100 84.75527954101562 286.57904052734375
v -100 84.04508209228516 287.972900390625
v -100 88.09017181396484 290.91180419921875
v 100 88.09017181396484 290.91180419921875
v 100 84.04508209228516 287.972900390625
v -100 82.93892669677734 289.07904052734375
v -100 85.87785339355469 293.12411499023438
v 100 85.87785339355469 293.12411499023438
v 100 82.93892669677734 289.07904052734375
v -100 81.54508209228516 289.78924560546875
v -100 83.09017181396484 294.54452514648438
v 100 83.09017181396484 294.54452514648438
v 100 81.54508209228516 289.78924560546875
v -100 80 290.03396606445312
v -100 80 295.03396606445312
v 100 80 295.03396606445312
v 100 80 290.03396606445312
v -100 78.45491790771484 289.78924560546875
v -100 76.90982818603516 294.54452514648438
v 100 76.90982818603516 294.54452514648438
v 100 78.45491790771484 289.78924560546875
v -100 77.06107330322266 289.07904052734375
v -100 74.12214660644531 293.12411499023438
v 100 74.12214660644531 293.12411499023438
v 100 77.06107330322266 289.07904052734375
v -100 75.95491790771484 287.972900390625
v -100 71.90982818603516 290.91180419921875
v 100 71.90982818603516 290.91180419921875
v 100 75.95491790771484 287.972900390625
v -100 75.24472045898438 286.57904052734375
v -100 70.48943328857422 288.12411499023438
v 100 70.48943328857422 288.12411499023438
v 100 75.24472045898438 286.57904052734375
# 104 vertices

vn 0 1 0
vn 0 -1 0
vn 0 -1 0.00000076943218
vn 0 -0.95105683803558 -0.30901604890823
vn 0 1 -0.00000151623442
vn 0 0.95105600357056 0.30901858210564
vn 0 -0.80901682376862 -0.58778548240662
vn 0 0.80901801586151 0.58778381347656
vn 0 -0.58778285980225 -0.80901873111725
vn 0 0.58778238296509 0.80901908874512
vn 0 -0.30901584029198 -0.95105689764023
vn 0 0.30901136994362 0.9510583281517
vn 0 0 -1
vn 0 0.30901584029198 -0.95105689764023
vn 0 -0.30901136994362 0.9510583281517
vn 0 0.58778285980225 -0.80901873111725
vn 0 -0.58778238296509 0.80901908874512
vn 0 0.80901682376862 -0.58778548240662
vn 0 -0.80901801586151 0.58778381347656
vn 0 0.95105683803558 -0.30901604890823
vn 0 -0.95105600357056 0.30901858210564
vn 0 1 0.00000076943218
vn 0 -1 -0.00000151623442
vn 0 0.951056599617 0.30901676416397
vn 0 -0.95105689764023 -0.30901578068733
vn 0 0.80901682376862 0.58778548240662
vn 0 -0.80901658535004 -0.58778584003448
vn 0 0.58778631687164 0.80901622772217
vn 0 -0.58778381347656 -0.80901807546616
vn 0 0.30901998281479 0.9510555267334
vn 0 -0.3090195953846 -0.95105564594269
vn 0 0 1
vn 0 -0.30901998281479 0.9510555267334
vn 0 0.3090195953846 -0.95105564594269
vn 0 -0.58778631687164 0.80901622772217
vn 0 0.58778381347656 -0.80901807546616
vn 0 -0.80901682376862 0.58778548240662
vn 0 0.80901658535004 -0.58778584003448
vn 0 -0.951056599617 0.30901676416397
vn 0 0.95105689764023 -0.30901578068733
# 40 normals

vt 0.25 0.5 0
vt 0.26223587989807 0.57725423574448 0
vt 0.75 0.5 0
vt 0.73776412010193 0.57725423574448 0
vt 0.29774576425552 0.64694631099701 0
vt 0.70225423574448 0.64694631099701 0
vt 0.35305368900299 0.70225423574448 0
vt 0.64694631099701 0.70225423574448 0
vt 0.42274576425552 0.73776412010193 0
vt 0.57725423574448 0.73776412010193 0
vt 0.5 0.75 0
vt 0.73776412010193 0.42274582386017 0
vt 0.26223587989807 0.42274582386017 0
vt 0.70225423574448 0.35305368900299 0
vt 0.29774576425552 0.35305368900299 0
vt 0.64694631099701 0.29774582386017 0
vt 0.35305368900299 0.29774582386017 0
vt 0.57725423574448 0.26223587989807 0
vt 0.42274576425552 0.26223587989807 0
vt 0.5 0.25 0
# 20 texture coordinates

o Base_boite
usemtl Gris
f 45/61/19 46/60/19 44/5/19 43/4/19
f 47/61/5 48/60/5 46/5/5 45/4/5
f 49/61/9 50/60/9 48/5/9 47/4/9
f 43/61/1 44/60/1 50/5/1 49/4/1
f 56/61/24 57/60/24 58/5/24 55/4/24
f 47/61/25 45/60/25 43/5/25 49/4/25
f 46/61/24 52/61/24 51/4/24 44/4/24
f 48/60/24 53/60/24 52/61/24 46/61/24
f 50/5/24 54/5/24 53/60/24 48/60/24
f 44/4/24 51/4/24 54/5/24 50/5/24
f 52/61/9 56/61/9 55/4/9 51/4/9
f 53/60/1 57/60/1 56/61/1 52/61/1
f 54/5/19 58/5/19 57/60/19 53/60/19
f 51/4/5 55/4/5 58/5/5 54/5/5
f 61/61/19 62/60/19 60/5/19 59/4/19
f 63/61/5 64/60/5 62/5/5 61/4/5
f 65/61/9 66/60/9 64/5/9 63/4/9
f 59/61/1 60/60/1 66/5/1 65/4/1
f 62/61/24 64/60/24 66/5/24 60/4/24
f 63/61/25 61/60/25 59/5/25 65/4/25
f 71/63/1 72/3/1 68/2/1 67/62/1
f 72/7/27 73/6/27 69/5/26 68/4/26
f 73/9/5 74/65/5 70/64/5 69/8/5
f 74/9/29 71/9/29 67/8/28 70/8/28
f 75/66/1 76/10/1 72/3/1 71/63/1
f 76/12/30 77/11/30 73/6/27 72/7/27
f 77/13/5 78/67/5 74/65/5 73/9/5
f 78/13/31 75/13/31 71/9/29 74/9/29
f 79/68/1 80/14/1 76/10/1 75/66/1
f 80/16/32 81/15/32 77/11/30 76/12/30
f 81/17/5 82/69/5 78/67/5 77/13/5
f 82/17/33 79/17/33 75/13/31 78/13/31
f 83/70/1 84/18/1 80/14/1 79/68/1
f 84/20/34 85/19/34 81/15/32 80/16/32
f 85/21/5 86/71/5 82/69/5 81/17/5
f 86/21/35 83/21/35 79/17/33 82/17/33
f 87/72/1 88/22/1 84/18/1 83/70/1
f 88/24/36 89/23/36 85/19/34 84/20/34
f 89/22/5 90/72/5 86/71/5 85/21/5
f 90/22/19 87/22/19 83/21/35 86/21/35
f 91/71/1 92/21/1 88/22/1 87/72/1
f 92/26/37 93/25/37 89/23/36 88/24/36
f 93/18/5 94/70/5 90/72/5 89/22/5
f 94/18/38 91/18/38 87/22/19 90/22/19
f 95/69/1 96/17/1 92/21/1 91/71/1
f 96/28/39 97/27/39 93/25/37 92/26/37
f 97/14/5 98/68/5 94/70/5 93/18/5
f 98/14/40 95/14/40 91/18/38 94/18/38
f 99/67/1 100/13/1 96/17/1 95/69/1
f 100/30/41 101/29/41 97/27/39 96/28/39
f 101/10/5 102/66/5 98/68/5 97/14/5
f 102/10/42 99/10/42 95/14/40 98/14/40
f 103/65/1 104/9/1 100/13/1 99/67/1
f 104/32/43 105/31/43 101/29/41 100/30/41
f 105/3/5 106/63/5 102/66/5 101/10/5
f 106/3/44 103/3/44 99/10/42 102/10/42
f 107/64/1 108/8/1 104/9/1 103/65/1
f 108/33/45 109/22/45 105/31/43 104/32/43
f 109/2/5 110/62/5 106/63/5 105/3/5
f 110/2/46 107/2/46 103/3/44 106/3/44
f 111/73/1 112/34/1 108/8/1 107/64/1
f 112/36/47 113/35/47 109/22/45 108/33/45
f 113/37/5 114/74/5 110/62/5 109/2/5
f 114/37/48 111/37/48 107/2/46 110/2/46
f 115/75/1 116/38/1 112/34/1 111/73/1
f 116/40/49 117/39/49 113/35/47 112/36/47
f 117/41/5 118/76/5 114/74/5 113/37/5
f 118/41/50 115/41/50 111/37/48 114/37/48
f 119/77/1 120/42/1 116/38/1 115/75/1
f 120/44/51 121/43/51 117/39/49 116/40/49
f 121/45/5 122/78/5 118/76/5 117/41/5
f 122/45/52 119/45/52 115/41/50 118/41/50
f 123/79/1 124/46/1 120/42/1 119/77/1
f 124/48/53 125/47/53 121/43/51 120/44/51
f 125/49/5 126/80/5 122/78/5 121/45/5
f 126/49/54 123/49/54 119/45/52 122/45/52
f 127/81/1 128/33/1 124/46/1 123/79/1
f 128/51/55 129/50/55 125/47/53 124/48/53
f 129/33/5 130/81/5 126/80/5 125/49/5
f 130/33/9 127/33/9 123/49/54 126/49/54
f 131/80/1 132/49/1 128/33/1 127/81/1
f 132/53/56 133/52/56 129/50/55 128/51/55
f 133/46/5 134/79/5 130/81/5 129/33/5
f 134/46/57 131/46/57 127/33/9 130/33/9
f 135/78/1 136/45/1 132/49/1 131/80/1
f 136/55/58 137/54/58 133/52/56 132/53/56
f 137/42/5 138/77/5 134/79/5 133/46/5
f 138/42/59 135/42/59 131/46/57 134/46/57
f 139/76/1 140/41/1 136/45/1 135/78/1
f 140/57/60 141/56/60 137/54/58 136/55/58
f 141/38/5 142/75/5 138/77/5 137/42/5
f 142/38/61 139/38/61 135/42/59 138/42/59
f 143/74/1 144/37/1 140/41/1 139/76/1
f 144/59/62 145/58/62 141/56/60 140/57/60
f 145/34/5 146/73/5 142/75/5 141/38/5
f 146/34/63 143/34/63 139/38/61 142/38/61
f 67/62/1 68/2/1 144/37/1 143/74/1
f 68/61/26 69/60/26 145/58/62 144/59/62
f 69/8/5 70/64/5 146/73/5 145/34/5
f 70/8/28 67/8/28 143/34/63 146/34/63

