# WaveFront *.obj file (generated by CINEMA 4D)

mtllib ./base_boite.mtl

v -275 -110 275
v -275 90 275
v 275 -110 275
v 275 90 275
v 275 -110 -275
v 275 90 -275
v -275 -110 -275
v -275 90 -275
v -250 90 250
v 250 90 250
v 250 90 -250
v -250 90 -250
v -250 -70 250
v 250 -70 250
v 250 -70 -250
v -250 -70 -250
v -100 85.98455047607422 285.01290893554688
v -100 89.98455047607422 285.01290893554688
v 100 85.98455047607422 285.01290893554688
v 100 89.98455047607422 285.01290893554688
v 100 85.98455047607422 270.01290893554688
v 100 89.98455047607422 270.01290893554688
v -100 85.98455047607422 270.01290893554688
v -100 89.98455047607422 270.01290893554688
v -100 75 285.03396606445312
v -100 70 285.03396606445312
v 100 70 285.03396606445312
v 100 75 285.03396606445312
v -100 75.24472045898438 283.48886108398438
v -100 70.48943328857422 281.94378662109375
v 100 70.48943328857422 281.94378662109375
v 100 75.24472045898438 283.48886108398438
v -100 75.95491790771484 282.09503173828125
v -100 71.90982818603516 279.15609741210938
v 100 71.90982818603516 279.15609741210938
v 100 75.95491790771484 282.09503173828125
v -100 77.06107330322266 280.98886108398438
v -100 74.12214660644531 276.94378662109375
v 100 74.12214660644531 276.94378662109375
v 100 77.06107330322266 280.98886108398438
v -100 78.45491790771484 280.2786865234375
v -100 76.90982818603516 275.52340698242188
v 100 76.90982818603516 275.52340698242188
v 100 78.45491790771484 280.2786865234375
v -100 80 280.03396606445312
v -100 80 275.03396606445312
v 100 80 275.03396606445312
v 100 80 280.03396606445312
v -100 81.54508209228516 280.2786865234375
v -100 83.09017181396484 275.52340698242188
v 100 83.09017181396484 275.52340698242188
v 100 81.54508209228516 280.2786865234375
v -100 82.93892669677734 280.98886108398438
v -100 85.87785339355469 276.94378662109375
v 100 85.87785339355469 276.94378662109375
v 100 82.93892669677734 280.98886108398438
v -100 84.04508209228516 282.09503173828125
v -100 88.09017181396484 279.15609741210938
v 100 88.09017181396484 279.15609741210938
v 100 84.04508209228516 282.09503173828125
v -100 84.75527954101562 283.48886108398438
v -100 89.51056671142578 281.94378662109375
v 100 89.51056671142578 281.94378662109375
v 100 84.75527954101562 283.48886108398438
v -100 85 285.03396606445312
v -100 90 285.03396606445312
v 100 90 285.03396606445312
v 100 85 285.03396606445312
v -100 84.75527954101562 286.57904052734375
v -100 89.51056671142578 288.12411499023438
v 100 89.51056671142578 288.12411499023438
v 100 84.75527954101562 286.57904052734375
v -100 84.04508209228516 287.972900390625
v -100 88.09017181396484 290.91180419921875
v 100 88.09017181396484 290.91180419921875
v 100 84.04508209228516 287.972900390625
v -100 82.93892669677734 289.07904052734375
v -100 85.87785339355469 293.12411499023438
v 100 85.87785339355469 293.12411499023438
v 100 82.93892669677734 289.07904052734375
v -100 81.54508209228516 289.78924560546875
v -100 83.09017181396484 294.54452514648438
v 100 83.09017181396484 294.54452514648438
v 100 81.54508209228516 289.78924560546875
v -100 80 290.03396606445312
v -100 80 295.03396606445312
v 100 80 295.03396606445312
v 100 80 290.03396606445312
v -100 78.45491790771484 289.78924560546875
v -100 76.90982818603516 294.54452514648438
v 100 76.90982818603516 294.54452514648438
v 100 78.45491790771484 289.78924560546875
v -100 77.06107330322266 289.07904052734375
v -100 74.12214660644531 293.12411499023438
v 100 74.12214660644531 293.12411499023438
v 100 77.06107330322266 289.07904052734375
v -100 75.95491790771484 287.972900390625
v -100 71.90982818603516 290.91180419921875
v 100 71.90982818603516 290.91180419921875
v 100 75.95491790771484 287.972900390625
v -100 75.24472045898438 286.57904052734375
v -100 70.48943328857422 288.12411499023438
v 100 70.48943328857422 288.12411499023438
v 100 75.24472045898438 286.57904052734375
# 104 vertices

vn 0 0 1
vn 1 0 0
vn 0 0 -1
vn -1 0 0
vn 0 1 0
vn 0 -1 0
vn 0 -1 0
vn 0 -0.95105910301208 -0.30900904536247
vn 0 1 0
vn 0 0.95105910301208 0.30900904536247
vn 0 -0.80901300907135 -0.58779072761536
vn 0 0.80901300907135 0.58779072761536
vn 0 -0.58779072761536 -0.80901300907135
vn 0 0.58779072761536 0.80901300907135
vn 0 -0.30900904536247 -0.95105910301208
vn 0 0.30900904536247 0.95105910301208
vn 0 0.30900904536247 -0.95105910301208
vn 0 -0.30900904536247 0.95105910301208
vn 0 0.58779072761536 -0.80901300907135
vn 0 -0.58779072761536 0.80901300907135
vn 0 0.80901300907135 -0.58779072761536
vn 0 -0.80901300907135 0.58779072761536
vn 0 0.95105910301208 -0.30900904536247
vn 0 -0.95105910301208 0.30900904536247
# 24 normals

vt 0 0 0
vt 0 1 0
vt 1 1 0
vt 1 0 0
vt 0.25 0.5 0
vt 0 0.5 0
vt 0.02447174116969 0.6545085310936 0
vt 0.26223587989807 0.57725423574448 0
vt 0.05000000074506 1 0
vt 0.05000000074506 0 0
vt 1 0.5 0
vt 0.75 0.5 0
vt 0.73776412010193 0.57725423574448 0
vt 0.97552824020386 0.6545085310936 0
vt 0.09549150615931 0.79389262199402 0
vt 0.29774576425552 0.64694631099701 0
vt 0.10000000149012 1 0
vt 0.10000000149012 0 0
vt 0.70225423574448 0.64694631099701 0
vt 0.90450847148895 0.79389262199402 0
vt 0.20610737800598 0.90450847148895 0
vt 0.35305368900299 0.70225423574448 0
vt 0.15000000596046 1 0
vt 0.15000000596046 0 0
vt 0.64694631099701 0.70225423574448 0
vt 0.79389262199402 0.90450847148895 0
vt 0.34549149870872 0.97552824020386 0
vt 0.42274576425552 0.73776412010193 0
vt 0.20000000298023 1 0
vt 0.20000000298023 0 0
vt 0.57725423574448 0.73776412010193 0
vt 0.65450847148895 0.97552824020386 0
vt 0.5 1 0
vt 0.5 0.75 0
vt 0.25 1 0
vt 0.25 0 0
vt 0.30000001192093 1 0
vt 0.30000001192093 0 0
vt 0.34999999403954 1 0
vt 0.34999999403954 0 0
vt 0.40000000596046 1 0
vt 0.40000000596046 0 0
vt 0.44999998807907 1 0
vt 0.44999998807907 0 0
vt 0.5 0 0
vt 0.97552824020386 0.34549152851105 0
vt 0.73776412010193 0.42274582386017 0
vt 0.55000001192093 1 0
vt 0.55000001192093 0 0
vt 0.26223587989807 0.42274582386017 0
vt 0.02447174116969 0.34549152851105 0
vt 0.90450847148895 0.20610737800598 0
vt 0.70225423574448 0.35305368900299 0
vt 0.60000002384186 1 0
vt 0.60000002384186 0 0
vt 0.29774576425552 0.35305368900299 0
vt 0.09549150615931 0.20610737800598 0
vt 0.79389262199402 0.09549152851105 0
vt 0.64694631099701 0.29774582386017 0
vt 0.64999997615814 1 0
vt 0.64999997615814 0 0
vt 0.35305368900299 0.29774582386017 0
vt 0.20610737800598 0.09549152851105 0
vt 0.65450847148895 0.02447175979614 0
vt 0.57725423574448 0.26223587989807 0
vt 0.69999998807907 1 0
vt 0.69999998807907 0 0
vt 0.42274576425552 0.26223587989807 0
vt 0.34549149870872 0.02447175979614 0
vt 0.5 0.25 0
vt 0.75 1 0
vt 0.75 0 0
vt 0.80000001192093 1 0
vt 0.80000001192093 0 0
vt 0.85000002384186 1 0
vt 0.85000002384186 0 0
vt 0.89999997615814 1 0
vt 0.89999997615814 0 0
vt 0.94999998807907 1 0
vt 0.94999998807907 0 0
# 80 texture coordinates

o Base_boite
usemtl Gris
f 3/4/1 4/3/1 2/2/1 1/1/1
f 5/4/2 6/3/2 4/2/2 3/1/2
f 7/4/3 8/3/3 6/2/3 5/1/3
f 1/4/4 2/3/4 8/2/4 7/1/4
f 14/4/5 15/3/5 16/2/5 13/1/5
f 5/4/6 3/3/6 1/2/6 7/1/6
f 4/4/5 10/4/5 9/1/5 2/1/5
f 6/3/5 11/3/5 10/4/5 4/4/5
f 8/2/5 12/2/5 11/3/5 6/3/5
f 2/1/5 9/1/5 12/2/5 8/2/5
f 10/4/3 14/4/3 13/1/3 9/1/3
f 11/3/4 15/3/4 14/4/4 10/4/4
f 12/2/1 16/2/1 15/3/1 11/3/1
f 9/1/2 13/1/2 16/2/2 12/2/2
f 19/4/1 20/3/1 18/2/1 17/1/1
f 21/4/2 22/3/2 20/2/2 19/1/2
f 23/4/3 24/3/3 22/2/3 21/1/3
f 17/4/4 18/3/4 24/2/4 23/1/4
f 20/4/5 22/3/5 24/2/5 18/1/5
f 21/4/6 19/3/6 17/2/6 23/1/6
f 29/8/4 30/7/4 26/6/4 25/5/4
f 30/10/8 31/9/8 27/2/7 26/1/7
f 31/14/2 32/13/2 28/12/2 27/11/2
f 32/14/10 29/14/10 25/11/9 28/11/9
f 33/16/4 34/15/4 30/7/4 29/8/4
f 34/18/11 35/17/11 31/9/8 30/10/8
f 35/20/2 36/19/2 32/13/2 31/14/2
f 36/20/12 33/20/12 29/14/10 32/14/10
f 37/22/4 38/21/4 34/15/4 33/16/4
f 38/24/13 39/23/13 35/17/11 34/18/11
f 39/26/2 40/25/2 36/19/2 35/20/2
f 40/26/14 37/26/14 33/20/12 36/20/12
f 41/28/4 42/27/4 38/21/4 37/22/4
f 42/30/15 43/29/15 39/23/13 38/24/13
f 43/32/2 44/31/2 40/25/2 39/26/2
f 44/32/16 41/32/16 37/26/14 40/26/14
f 45/34/4 46/33/4 42/27/4 41/28/4
f 46/36/3 47/35/3 43/29/15 42/30/15
f 47/33/2 48/34/2 44/31/2 43/32/2
f 48/33/1 45/33/1 41/32/16 44/32/16
f 49/31/4 50/32/4 46/33/4 45/34/4
f 50/38/17 51/37/17 47/35/3 46/36/3
f 51/27/2 52/28/2 48/34/2 47/33/2
f 52/27/18 49/27/18 45/33/1 48/33/1
f 53/25/4 54/26/4 50/32/4 49/31/4
f 54/40/19 55/39/19 51/37/17 50/38/17
f 55/21/2 56/22/2 52/28/2 51/27/2
f 56/21/20 53/21/20 49/27/18 52/27/18
f 57/19/4 58/20/4 54/26/4 53/25/4
f 58/42/21 59/41/21 55/39/19 54/40/19
f 59/15/2 60/16/2 56/22/2 55/21/2
f 60/15/22 57/15/22 53/21/20 56/21/20
f 61/13/4 62/14/4 58/20/4 57/19/4
f 62/44/23 63/43/23 59/41/21 58/42/21
f 63/7/2 64/8/2 60/16/2 59/15/2
f 64/7/24 61/7/24 57/15/22 60/15/22
f 65/12/4 66/11/4 62/14/4 61/13/4
f 66/45/9 67/33/9 63/43/23 62/44/23
f 67/6/2 68/5/2 64/8/2 63/7/2
f 68/6/7 65/6/7 61/7/24 64/7/24
f 69/47/4 70/46/4 66/11/4 65/12/4
f 70/49/10 71/48/10 67/33/9 66/45/9
f 71/51/2 72/50/2 68/5/2 67/6/2
f 72/51/8 69/51/8 65/6/7 68/6/7
f 73/53/4 74/52/4 70/46/4 69/47/4
f 74/55/12 75/54/12 71/48/10 70/49/10
f 75/57/2 76/56/2 72/50/2 71/51/2
f 76/57/11 73/57/11 69/51/8 72/51/8
f 77/59/4 78/58/4 74/52/4 73/53/4
f 78/61/14 79/60/14 75/54/12 74/55/12
f 79/63/2 80/62/2 76/56/2 75/57/2
f 80/63/13 77/63/13 73/57/11 76/57/11
f 81/65/4 82/64/4 78/58/4 77/59/4
f 82/67/16 83/66/16 79/60/14 78/61/14
f 83/69/2 84/68/2 80/62/2 79/63/2
f 84/69/15 81/69/15 77/63/13 80/63/13
f 85/70/4 86/45/4 82/64/4 81/65/4
f 86/72/1 87/71/1 83/66/16 82/67/16
f 87/45/2 88/70/2 84/68/2 83/69/2
f 88/45/3 85/45/3 81/69/15 84/69/15
f 89/68/4 90/69/4 86/45/4 85/70/4
f 90/74/18 91/73/18 87/71/1 86/72/1
f 91/64/2 92/65/2 88/70/2 87/45/2
f 92/64/17 89/64/17 85/45/3 88/45/3
f 93/62/4 94/63/4 90/69/4 89/68/4
f 94/76/20 95/75/20 91/73/18 90/74/18
f 95/58/2 96/59/2 92/65/2 91/64/2
f 96/58/19 93/58/19 89/64/17 92/64/17
f 97/56/4 98/57/4 94/63/4 93/62/4
f 98/78/22 99/77/22 95/75/20 94/76/20
f 99/52/2 100/53/2 96/59/2 95/58/2
f 100/52/21 97/52/21 93/58/19 96/58/19
f 101/50/4 102/51/4 98/57/4 97/56/4
f 102/80/24 103/79/24 99/77/22 98/78/22
f 103/46/2 104/47/2 100/53/2 99/52/2
f 104/46/23 101/46/23 97/52/21 100/52/21
f 25/5/4 26/6/4 102/51/4 101/50/4
f 26/4/7 27/3/7 103/79/24 102/80/24
f 27/11/2 28/12/2 104/47/2 103/46/2
f 28/11/9 25/11/9 101/46/23 104/46/23

v -150 80 285.04290771484375
v 150 80 285.04290771484375
v -150 75.5 285.04290771484375
v 150 75.5 285.04290771484375
v -150 75.72024536132812 283.65234375
v 150 75.72024536132812 283.65234375
v -150 76.35942077636719 282.39788818359375
v 150 76.35942077636719 282.39788818359375
v -150 77.35496520996094 281.40234375
v 150 77.35496520996094 281.40234375
v -150 78.60942077636719 280.76315307617188
v 150 78.60942077636719 280.76315307617188
v -150 80 280.54290771484375
v 150 80 280.54290771484375
v -150 81.39057922363281 280.76315307617188
v 150 81.39057922363281 280.76315307617188
v -150 82.64503479003906 281.40234375
v 150 82.64503479003906 281.40234375
v -150 83.64057922363281 282.39788818359375
v 150 83.64057922363281 282.39788818359375
v -150 84.27975463867188 283.65234375
v 150 84.27975463867188 283.65234375
v -150 84.5 285.04290771484375
v 150 84.5 285.04290771484375
v -150 84.27975463867188 286.43350219726562
v 150 84.27975463867188 286.43350219726562
v -150 83.64057922363281 287.68795776367188
v 150 83.64057922363281 287.68795776367188
v -150 82.64503479003906 288.68350219726562
v 150 82.64503479003906 288.68350219726562
v -150 81.39057922363281 289.32266235351562
v 150 81.39057922363281 289.32266235351562
v -150 80 289.54290771484375
v 150 80 289.54290771484375
v -150 78.60942077636719 289.32266235351562
v 150 78.60942077636719 289.32266235351562
v -150 77.35496520996094 288.68350219726562
v 150 77.35496520996094 288.68350219726562
v -150 76.35942077636719 287.68795776367188
v 150 76.35942077636719 287.68795776367188
v -150 75.72024536132812 286.43350219726562
v 150 75.72024536132812 286.43350219726562
# 42 vertices

vn 0 0.5877702832222 0.80902791023254
vn 0 -0.5877702832222 0.80902791023254
# 2 normals

vt 0.5 0.5 0
# 1 texture coordinate

o Cylindre
usemtl Noir
f 109/7/4 107/6/4 105/81/4
f 109/10/8 110/9/8 108/2/7 107/1/7
f 110/14/2 106/81/2 108/11/2
f 111/15/4 109/7/4 105/81/4
f 111/18/11 112/17/11 110/9/8 109/10/8
f 112/20/2 106/81/2 110/14/2
f 113/21/4 111/15/4 105/81/4
f 113/24/13 114/23/13 112/17/11 111/18/11
f 114/26/2 106/81/2 112/20/2
f 115/27/4 113/21/4 105/81/4
f 115/30/15 116/29/15 114/23/13 113/24/13
f 116/32/2 106/81/2 114/26/2
f 117/33/4 115/27/4 105/81/4
f 117/36/3 118/35/3 116/29/15 115/30/15
f 118/33/2 106/81/2 116/32/2
f 119/32/4 117/33/4 105/81/4
f 119/38/17 120/37/17 118/35/3 117/36/3
f 120/27/2 106/81/2 118/33/2
f 121/26/4 119/32/4 105/81/4
f 121/40/19 122/39/19 120/37/17 119/38/17
f 122/21/2 106/81/2 120/27/2
f 123/20/4 121/26/4 105/81/4
f 123/42/21 124/41/21 122/39/19 121/40/19
f 124/15/2 106/81/2 122/21/2
f 125/14/4 123/20/4 105/81/4
f 125/44/23 126/43/23 124/41/21 123/42/21
f 126/7/2 106/81/2 124/15/2
f 127/11/4 125/14/4 105/81/4
f 127/45/9 128/33/9 126/43/23 125/44/23
f 128/6/2 106/81/2 126/7/2
f 129/46/4 127/11/4 105/81/4
f 129/49/10 130/48/10 128/33/9 127/45/9
f 130/51/2 106/81/2 128/6/2
f 131/52/4 129/46/4 105/81/4
f 131/55/12 132/54/12 130/48/10 129/49/10
f 132/57/2 106/81/2 130/51/2
f 133/58/4 131/52/4 105/81/4
f 133/61/25 134/60/25 132/54/12 131/55/12
f 134/63/2 106/81/2 132/57/2
f 135/64/4 133/58/4 105/81/4
f 135/67/16 136/66/16 134/60/25 133/61/25
f 136/69/2 106/81/2 134/63/2
f 137/45/4 135/64/4 105/81/4
f 137/72/1 138/71/1 136/66/16 135/67/16
f 138/45/2 106/81/2 136/69/2
f 139/69/4 137/45/4 105/81/4
f 139/74/18 140/73/18 138/71/1 137/72/1
f 140/64/2 106/81/2 138/45/2
f 141/63/4 139/69/4 105/81/4
f 141/76/26 142/75/26 140/73/18 139/74/18
f 142/58/2 106/81/2 140/64/2
f 143/57/4 141/63/4 105/81/4
f 143/78/22 144/77/22 142/75/26 141/76/26
f 144/52/2 106/81/2 142/58/2
f 145/51/4 143/57/4 105/81/4
f 145/80/24 146/79/24 144/77/22 143/78/22
f 146/46/2 106/81/2 144/52/2
f 107/6/4 145/51/4 105/81/4
f 107/4/7 108/3/7 146/79/24 145/80/24
f 108/11/2 106/81/2 146/46/2

