<svg xmlns="http://www.w3.org/2000/svg" viewBox="0 0 257.26 310.25"><defs><style>.cls-1{fill:#fff;}</style></defs><title>logo_empty</title><g id="Calque_2" data-name="Calque 2"><g id="Splashscreen"><path class="cls-1" d="M257.26,310.25H179L147.7,194.91l4.86-3a45.48,45.48,0,1,0-47.87,0l4.86,3L78.3,310.25H0V128.5A128.65,128.65,0,0,1,128.5,0h.26a128.65,128.65,0,0,1,128.5,128.5Zm-66.55-15.36H241.9V128.5A113.27,113.27,0,0,0,128.76,15.36h-.26A113.27,113.27,0,0,0,15.36,128.5V294.89H66.55l25.27-93.23a60.84,60.84,0,1,1,73.63,0Z"/></g></g></svg>