<svg xmlns="http://www.w3.org/2000/svg" xmlns:xlink="http://www.w3.org/1999/xlink" viewBox="0 0 433.03 213.53"><defs><style>.cls-1,.cls-2,.cls-3,.cls-4,.cls-5,.cls-6,.cls-7,.cls-8{fill:none;stroke-miterlimit:10;stroke-width:3px;}.cls-1,.cls-2{stroke:#fff;}.cls-1,.cls-3,.cls-4,.cls-5,.cls-6,.cls-7,.cls-8,.cls-9{opacity:0.3;}.cls-3{stroke:url(#Dégradé_sans_nom_9);}.cls-4{stroke:url(#Dégradé_sans_nom_9-2);}.cls-5{stroke:url(#Dégradé_sans_nom_9-3);}.cls-6{stroke:url(#Dégradé_sans_nom_10);}.cls-7{stroke:url(#Dégradé_sans_nom_10-2);}.cls-8{stroke:url(#Dégradé_sans_nom_10-3);}.cls-10,.cls-11,.cls-9{font-size:19px;fill:#fff;font-family:Gilroy-Bold, Gilroy;font-weight:700;letter-spacing:0.02em;}.cls-11{opacity:0.3;}</style><linearGradient id="Dégradé_sans_nom_9" x1="29.91" y1="106.21" x2="93.05" y2="106.21" gradientUnits="userSpaceOnUse"><stop offset="0" stop-color="#fff" stop-opacity="0"/><stop offset="0.19" stop-color="#fff" stop-opacity="0.15"/><stop offset="0.58" stop-color="#fff" stop-opacity="0.44"/><stop offset="0.86" stop-color="#fff" stop-opacity="0.63"/><stop offset="1" stop-color="#fff" stop-opacity="0.7"/></linearGradient><linearGradient id="Dégradé_sans_nom_9-2" x1="0" y1="181.97" x2="63.13" y2="181.97" xlink:href="#Dégradé_sans_nom_9"/><linearGradient id="Dégradé_sans_nom_9-3" x1="10.3" y1="31.57" x2="73.44" y2="31.57" xlink:href="#Dégradé_sans_nom_9"/><linearGradient id="Dégradé_sans_nom_10" x1="342.86" y1="31.57" x2="405.99" y2="31.57" gradientUnits="userSpaceOnUse"><stop offset="0" stop-color="#fff" stop-opacity="0.7"/><stop offset="0.14" stop-color="#fff" stop-opacity="0.63"/><stop offset="0.42" stop-color="#fff" stop-opacity="0.44"/><stop offset="0.81" stop-color="#fff" stop-opacity="0.15"/><stop offset="1" stop-color="#fff" stop-opacity="0"/></linearGradient><linearGradient id="Dégradé_sans_nom_10-2" x1="369.89" y1="106.21" x2="433.03" y2="106.21" xlink:href="#Dégradé_sans_nom_10"/><linearGradient id="Dégradé_sans_nom_10-3" x1="338.77" y1="181.97" x2="401.91" y2="181.97" xlink:href="#Dégradé_sans_nom_10"/></defs><title>how_to_play</title><g id="Calque_2" data-name="Calque 2"><g id="Aide"><rect class="cls-1" x="90.59" y="1.5" width="60.13" height="60.13" rx="5.76" ry="5.76"/><rect class="cls-2" x="175.52" y="1.5" width="60.13" height="60.13" rx="5.76" ry="5.76"/><rect class="cls-2" x="260.45" y="1.5" width="60.13" height="60.13" rx="5.76" ry="5.76"/><rect class="cls-2" x="117.62" y="76.14" width="60.13" height="60.13" rx="5.76" ry="5.76"/><rect class="cls-1" x="202.56" y="76.14" width="60.13" height="60.13" rx="5.76" ry="5.76"/><rect class="cls-1" x="287.49" y="76.14" width="60.13" height="60.13" rx="5.76" ry="5.76"/><rect class="cls-1" x="86.5" y="151.9" width="60.13" height="60.13" rx="5.76" ry="5.76"/><rect class="cls-1" x="171.43" y="151.9" width="60.13" height="60.13" rx="5.76" ry="5.76"/><rect class="cls-1" x="256.37" y="151.9" width="60.13" height="60.13" rx="5.76" ry="5.76"/><rect class="cls-3" x="31.41" y="76.14" width="60.13" height="60.13" rx="4" ry="4"/><rect class="cls-4" x="1.5" y="151.9" width="60.13" height="60.13" rx="5.76" ry="5.76"/><rect class="cls-5" x="11.8" y="1.5" width="60.13" height="60.13" rx="4" ry="4"/><rect class="cls-6" x="344.36" y="1.5" width="60.13" height="60.13" rx="5.76" ry="5.76"/><rect class="cls-7" x="371.39" y="76.14" width="60.13" height="60.13" rx="5.76" ry="5.76"/><rect class="cls-8" x="340.27" y="151.9" width="60.13" height="60.13" rx="5.76" ry="5.76"/><text class="cls-9" transform="translate(98.91 24.96)">E</text><text class="cls-10" transform="translate(183.11 24.96)">R</text><text class="cls-10" transform="translate(268.82 24.96)">T</text><text class="cls-10" transform="translate(124.21 99.61)">D</text><text class="cls-9" transform="translate(211.05 99.61)">F</text><text class="cls-9" transform="translate(293.53 99.61)">G</text><text class="cls-9" transform="translate(94.06 175.36)">X</text><text class="cls-11" transform="translate(177.96 175.36)">C</text><text class="cls-9" transform="translate(263.71 175.36)">V</text><text class="cls-9" transform="translate(351.96 24.96)">Y</text><text class="cls-9" transform="translate(378.57 99.61)">H</text><text class="cls-9" transform="translate(348.02 175.36)">B</text></g></g></svg>